<?xml version="1.0" standalone="no"?>
<!DOCTYPE svg PUBLIC "-//W3C//DTD SVG 20010904//EN"
 "http://www.w3.org/TR/2001/REC-SVG-20010904/DTD/svg10.dtd">
<svg version="1.0" xmlns="http://www.w3.org/2000/svg"
 width="680.000000pt" height="680.000000pt" viewBox="0 0 680.000000 680.000000"
 preserveAspectRatio="xMidYMid meet">
<metadata>
Created by potrace 1.11, written by Peter Selinger 2001-2013
</metadata>
<g transform="translate(0.000000,680.000000) scale(0.100000,-0.100000)"
fill="#000000" stroke="none">
<path d="M1433 6151 l-523 -523 0 -2791 0 -2792 522 520 c287 286 524 521 527
522 6 4 7 5561 1 5576 -3 7 -235 -218 -527 -512z"/>
<path d="M5697 6674 c-1 -1 -45 -4 -97 -8 -125 -8 -206 -18 -395 -51 -173 -31
-489 -132 -693 -222 -540 -238 -1020 -633 -1368 -1123 -126 -179 -271 -442
-357 -650 -66 -159 -159 -467 -181 -595 -2 -16 -11 -68 -19 -115 -32 -181 -42
-310 -42 -550 0 -173 8 -337 19 -395 2 -11 7 -45 11 -75 4 -30 9 -62 10 -71 2
-9 6 -33 9 -54 14 -86 59 -268 97 -390 90 -285 196 -514 372 -799 70 -114 235
-330 332 -435 269 -291 502 -475 875 -691 49 -29 254 -126 345 -163 190 -79
512 -168 710 -197 44 -7 87 -14 96 -15 56 -11 342 -29 415 -26 l21 1 0 525 0
525 -51 1 c-93 1 -240 13 -290 24 -12 2 -37 7 -57 9 -20 3 -42 8 -50 10 -8 3
-30 7 -49 10 -19 3 -75 17 -125 32 -892 258 -1541 1038 -1633 1959 -8 91 -8
371 2 455 20 175 87 457 135 565 5 11 21 49 36 85 256 612 801 1095 1451 1285
100 30 100 30 209 50 135 25 232 36 340 40 33 1 65 3 71 4 8 1 11 149 10 524
l-1 522 -78 0 c-43 0 -79 0 -80 -1z"/>
</g>
</svg>
